<?xml version="1.0" standalone="no"?>
<!DOCTYPE svg PUBLIC "-//W3C//DTD SVG 20010904//EN"
 "http://www.w3.org/TR/2001/REC-SVG-20010904/DTD/svg10.dtd">
<svg version="1.0" xmlns="http://www.w3.org/2000/svg"
 width="512.000000pt" height="512.000000pt" viewBox="0 0 512.000000 512.000000"
 preserveAspectRatio="xMidYMid meet">
<metadata>
Created by potrace 1.11, written by Peter Selinger 2001-2013
</metadata>
<g transform="translate(0.000000,512.000000) scale(0.100000,-0.100000)"
fill="#000000" stroke="none">
<path d="M348 3742 l-58 -3 0 -214 c0 -165 3 -215 13 -216 6 -1 104 -2 217 -3
l205 -1 0 -963 0 -962 73 0 c93 -1 271 -1 322 0 l40 0 0 963 0 963 215 0 c118
0 216 -2 216 -5 1 -3 2 -434 3 -958 1 -523 4 -954 7 -958 9 -8 1349 -9 1357 0
4 3 7 437 7 963 l0 957 248 1 247 1 0 -36 c1 -20 1 -453 1 -963 l0 -928 45 -1
c24 0 96 0 159 0 63 0 141 0 174 0 l58 1 1 943 c0 518 1 951 1 963 1 20 5 20
248 20 l248 -1 0 -962 -1 -963 98 -1 c54 0 114 -1 133 -1 19 0 73 1 120 1 l85
1 0 1180 0 1180 -67 0 c-134 1 -2139 1 -2185 1 l-48 -1 -2 -962 -3 -963 -247
0 -248 -1 0 963 0 963 -32 0 c-248 3 -1608 4 -1650 2z"/>
</g>
</svg>
